<?xml version="1.0" standalone="no"?>
<!DOCTYPE svg PUBLIC "-//W3C//DTD SVG 20010904//EN"
 "http://www.w3.org/TR/2001/REC-SVG-20010904/DTD/svg10.dtd">
<svg version="1.0" xmlns="http://www.w3.org/2000/svg"
 width="1317.000000pt" height="600.000000pt" viewBox="0 0 1317.000000 600.000000"
 preserveAspectRatio="xMidYMid meet">

<g transform="translate(0.000000,600.000000) scale(0.100000,-0.100000)"
fill="#000000" stroke="none">
<path d="M0 3000 l0 -3000 6585 0 6585 0 0 3000 0 3000 -6585 0 -6585 0 0
-3000z m3736 2635 c97 -29 128 -103 69 -165 -16 -17 -40 -33 -53 -37 l-23 -5
20 -20 c12 -10 21 -27 21 -38 0 -27 -47 -61 -76 -54 -13 4 -32 -1 -46 -10 -30
-21 -66 -20 -105 4 -42 25 -62 66 -69 142 -4 35 -13 71 -21 80 -63 72 140 146
283 103z m3070 -122 c0 -71 3 -143 7 -160 8 -29 6 -34 -17 -45 -23 -10 -29 -8
-50 11 -14 13 -29 20 -35 17 -17 -11 -24 40 -19 133 7 118 36 170 94 171 21 0
21 -4 20 -127z m299 106 c11 -12 12 -28 3 -92 -8 -58 -8 -98 0 -150 6 -39 9
-75 6 -79 -20 -33 -95 33 -113 99 -43 156 -49 210 -28 232 16 17 113 9 132
-10z m-3120 -19 c4 -6 1 -17 -5 -25 -24 -29 -85 -11 -73 21 6 16 69 19 78 4z
m1670 -15 c0 -15 -8 -21 -29 -23 -33 -4 -51 10 -42 33 9 25 71 16 71 -10z
m2390 0 c0 -14 -8 -21 -25 -23 -33 -3 -55 12 -47 33 10 25 72 17 72 -10z
m-2120 1 c24 -17 38 -137 24 -209 -9 -52 -34 -91 -51 -81 -5 4 -37 6 -70 5
-45 0 -70 5 -93 19 -18 11 -35 17 -38 14 -3 -4 -12 5 -18 20 -17 36 3 98 39
126 22 18 37 21 80 18 57 -5 58 -3 42 51 -5 19 -7 38 -4 42 8 14 68 10 89 -5z
m1929 4 c16 -6 26 -17 26 -29 0 -10 9 -21 20 -24 30 -8 25 -35 -7 -39 -25 -3
-28 -8 -31 -43 -2 -28 5 -55 22 -87 28 -53 22 -63 -28 -54 -20 4 -42 18 -57
38 -40 54 -48 71 -49 111 0 26 -4 37 -15 37 -38 0 11 75 58 89 18 5 33 10 34
10 1 1 13 -3 27 -9z m330 0 c16 -6 26 -17 26 -29 0 -10 9 -21 20 -24 29 -7 26
-37 -4 -37 -41 0 -43 -69 -3 -147 18 -34 14 -43 -20 -43 -52 0 -123 97 -123
169 0 12 -6 21 -15 21 -38 0 13 75 61 90 16 4 30 9 31 9 1 1 13 -3 27 -9z
m490 0 c16 -6 26 -17 26 -29 0 -10 9 -21 20 -24 29 -7 26 -37 -4 -37 -42 0
-42 -83 -1 -147 19 -29 12 -43 -22 -43 -50 0 -123 101 -123 173 0 10 -8 17
-19 17 -16 0 -21 -9 -27 -46 -3 -25 -4 -67 0 -94 4 -27 3 -51 -2 -54 -5 -3
-25 3 -44 13 -34 17 -36 17 -59 -2 -28 -22 -70 -17 -112 14 -15 11 -31 17 -36
15 -13 -8 -21 19 -21 72 0 83 57 140 111 111 19 -10 21 -17 16 -61 -7 -57 5
-88 33 -88 18 0 19 5 13 65 -8 83 8 105 74 105 27 0 43 -4 43 -12 1 -7 11 0
24 15 12 15 36 32 52 37 16 4 30 9 31 9 1 1 13 -3 27 -9z m741 -4 c24 -17 38
-137 24 -209 -9 -52 -34 -91 -51 -81 -5 4 -39 6 -75 5 -63 -1 -67 1 -104 38
-50 50 -52 89 -9 133 28 28 35 30 85 26 60 -5 61 -4 45 51 -5 19 -7 38 -4 42
8 14 68 10 89 -5z m-4572 -37 c47 -21 60 -88 30 -141 -18 -29 -89 -80 -131
-93 -55 -16 -140 42 -128 89 3 15 9 38 12 52 5 18 0 34 -15 54 -11 16 -21 32
-21 35 0 3 18 5 40 5 27 0 47 -7 60 -20 22 -22 24 -40 11 -88 -12 -41 -5 -62
20 -62 32 0 43 46 25 100 -15 43 -15 46 5 63 24 20 57 22 92 6z m1340 -9 c10
0 32 -13 48 -29 57 -57 32 -157 -47 -187 -50 -19 -95 -9 -144 33 -16 13 -34
22 -39 19 -11 -7 -21 17 -21 47 0 66 95 136 165 121 11 -2 28 -4 38 -4z m2760
0 c10 0 32 -13 48 -29 57 -57 32 -157 -47 -187 -48 -18 -92 -9 -139 28 -21 16
-29 18 -35 8 -11 -17 -30 19 -30 57 0 72 91 142 165 127 11 -2 28 -4 38 -4z
m-4976 -87 c1 -49 3 -101 5 -118 5 -44 -37 -47 -77 -5 -24 25 -30 40 -33 93
-5 77 19 117 72 117 l32 0 1 -87z m252 60 c38 -29 48 -65 27 -98 -23 -34 -61
-49 -98 -36 -35 12 -37 -3 -3 -25 18 -11 36 -14 67 -9 l43 6 -24 -21 c-17 -15
-37 -20 -76 -20 -48 0 -56 3 -85 36 -24 28 -34 34 -40 24 -14 -23 -34 33 -26
73 7 36 36 69 76 86 36 15 108 7 139 -16z m331 12 c44 -23 57 -81 33 -154 -21
-65 -40 -74 -84 -42 -23 17 -29 18 -29 7 0 -8 -5 -18 -11 -22 -7 -4 -9 10 -4
48 7 59 -8 87 -41 74 -14 -6 -16 -17 -10 -75 5 -57 3 -70 -10 -75 -8 -3 -24
-2 -33 4 -25 13 -81 129 -81 167 0 57 73 85 104 41 9 -12 16 -17 16 -10 0 18
61 52 93 52 15 0 41 -7 57 -15z m578 -12 c14 -11 30 -32 35 -47 18 -53 -51
-108 -109 -86 -28 11 -32 -1 -7 -25 13 -13 27 -16 60 -11 24 3 43 2 43 -4 0
-17 -38 -30 -88 -30 -45 0 -52 4 -91 45 -23 25 -46 45 -52 45 -17 0 -9 57 13
85 44 56 140 70 196 28z m349 -8 c28 -32 31 -107 6 -159 -22 -46 -36 -50 -73
-20 -22 19 -30 22 -30 10 0 -8 -5 -18 -11 -22 -8 -4 -10 11 -8 51 3 47 1 60
-14 69 -15 9 -21 7 -33 -8 -8 -11 -12 -27 -10 -35 17 -65 16 -90 -4 -101 -18
-10 -25 -7 -49 19 -16 17 -32 43 -36 58 -3 15 -12 31 -18 35 -18 11 -13 75 8
98 22 24 70 27 83 4 8 -14 14 -12 48 11 50 34 107 30 141 -10z m165 -45 c-2
-41 1 -89 7 -106 18 -63 -30 -73 -84 -17 -29 30 -35 43 -35 79 0 83 31 127 85
122 l30 -3 -3 -75z m988 51 c22 -15 26 -28 31 -92 3 -41 10 -84 14 -96 6 -20
4 -23 -17 -23 -13 0 -34 7 -46 16 -21 14 -25 14 -40 1 -30 -26 -60 -29 -107
-11 -57 21 -68 49 -31 81 15 13 44 26 65 29 86 14 75 50 -12 39 -55 -7 -72 12
-42 46 38 41 135 47 185 10z m780 14 c16 -8 34 -24 40 -34 27 -51 -3 -172 -43
-179 -11 -2 -29 6 -42 18 l-23 22 -9 -24 c-6 -18 -9 -9 -13 42 -4 53 -8 65
-24 68 -29 6 -37 -17 -30 -84 5 -54 4 -62 -12 -68 -14 -6 -27 2 -53 31 -62 70
-79 145 -41 183 27 27 80 27 87 0 5 -19 7 -18 40 10 38 34 77 39 123 15z m224
9 c26 -10 18 -23 -16 -26 -48 -5 -45 -24 9 -48 64 -28 83 -47 83 -84 0 -54
-10 -59 -110 -63 -99 -4 -120 4 -120 42 0 31 9 36 36 18 26 -16 54 -12 54 9 0
7 -16 23 -36 36 -30 20 -35 28 -32 55 2 25 10 36 38 49 36 19 67 22 94 12z
m397 -62 c-2 -35 3 -84 9 -108 11 -38 11 -48 -2 -60 -18 -18 -51 -7 -90 31
-62 58 -19 210 56 203 l31 -3 -4 -63z m1633 54 c63 -26 84 -86 44 -123 -31
-28 -60 -35 -92 -24 -33 13 -35 -3 -1 -25 18 -11 36 -14 67 -9 l43 6 -24 -21
c-17 -15 -37 -20 -76 -20 -48 0 -56 3 -84 35 -17 19 -37 35 -45 35 -35 0 -30
83 7 118 44 42 104 52 161 28z m-5258 -416 c71 0 94 -15 94 -60 0 -36 -36 -66
-90 -75 -22 -4 -40 -10 -40 -15 0 -5 -3 -16 -6 -25 -6 -14 -3 -14 30 2 37 17
65 12 74 -15 6 -19 -37 -52 -68 -52 -29 0 -30 -2 -30 -45 0 -40 -2 -45 -23
-45 -48 0 -97 84 -97 168 0 36 -5 54 -20 67 -26 23 -25 60 1 86 18 18 29 20
67 15 24 -3 73 -6 108 -6z m2038 4 c9 -3 16 -12 16 -19 0 -15 -80 -65 -103
-65 -29 0 -28 31 2 61 29 28 53 35 85 23z m885 -14 c60 -30 68 -76 24 -123
-28 -29 -32 -57 -21 -167 4 -36 -26 -37 -68 -1 -52 46 -127 42 -83 -5 42 -45
-7 -60 -69 -20 -60 38 -122 123 -122 167 0 58 76 134 160 160 50 15 139 10
179 -11z m671 6 c9 -12 4 -20 -31 -46 -70 -50 -117 -27 -61 30 33 32 72 39 92
16z m-1812 -48 c-4 -28 -48 -37 -67 -14 -18 22 -5 36 35 36 31 0 35 -3 32 -22z
m2357 12 c10 -16 -14 -40 -40 -40 -26 0 -50 24 -40 40 3 5 21 10 40 10 19 0
37 -5 40 -10z m-777 -12 c7 -7 12 -20 12 -30 0 -11 7 -18 20 -18 13 0 20 -7
20 -20 0 -14 -7 -20 -24 -20 -43 0 -43 -82 0 -147 13 -21 14 -27 3 -34 -36
-23 -101 20 -120 80 -6 20 -15 40 -20 46 -5 5 -10 20 -10 35 -1 20 -2 21 -6 5
-3 -11 -10 -26 -15 -32 -13 -16 -80 -17 -94 -3 -15 15 -44 1 -44 -20 0 -10 9
-40 20 -65 22 -52 15 -75 -24 -75 -25 1 -91 60 -101 90 -11 34 4 109 26 131
25 25 59 25 66 -1 5 -19 7 -19 36 6 26 22 38 25 74 21 36 -4 46 -1 58 16 29
42 97 61 123 35z m590 0 c7 -7 12 -20 12 -30 0 -11 7 -18 20 -18 13 0 20 -7
20 -20 0 -14 -7 -20 -24 -20 -43 0 -43 -82 0 -147 13 -21 14 -27 3 -34 -19
-13 -60 -1 -86 23 -28 27 -63 97 -63 128 0 12 -8 28 -17 35 -15 11 -15 15 6
41 39 50 101 70 129 42z m-3632 -54 c40 -19 64 -59 64 -105 0 -23 -10 -41 -39
-70 -33 -34 -45 -39 -82 -39 -49 1 -70 10 -123 57 -58 52 -42 118 39 154 50
23 97 24 141 3z m567 5 c12 -7 25 -17 29 -23 4 -7 14 -4 27 8 27 24 95 25 121
1 29 -26 33 -50 19 -105 -11 -44 -11 -52 4 -68 24 -26 21 -41 -9 -48 -28 -7
-100 22 -109 45 -3 7 0 31 6 53 13 48 7 68 -21 68 -29 0 -35 -24 -23 -84 16
-75 -15 -99 -70 -56 -15 12 -30 21 -34 21 -4 0 -8 23 -8 52 0 49 -2 52 -25 52
-27 0 -27 -1 -19 -90 3 -32 1 -40 -14 -43 -25 -5 -64 33 -78 77 -16 51 -18 52
-39 39 -14 -9 -27 -8 -61 5 -38 15 -45 15 -58 2 -13 -13 -12 -21 8 -70 19 -45
21 -58 11 -70 -22 -27 -56 -17 -94 27 -30 35 -36 49 -36 89 0 26 4 59 9 72 12
31 57 44 80 23 14 -13 19 -12 40 5 30 25 85 25 110 0 16 -16 21 -17 25 -6 7
20 53 30 70 16 10 -8 21 -7 42 4 35 18 68 19 97 4z m683 1 c27 0 14 -26 -18
-35 -37 -12 -51 -43 -34 -76 12 -24 23 -26 96 -17 20 2 26 -2 28 -22 4 -33
-29 -67 -72 -75 -24 -5 -47 -1 -82 16 -27 12 -51 23 -54 23 -48 10 -45 109 4
155 25 24 80 42 104 35 8 -2 20 -4 28 -4z m478 -15 c87 -57 33 -205 -75 -205
-42 0 -114 31 -122 52 -4 10 -8 10 -16 -2 -8 -12 -12 -9 -21 15 -32 85 56 172
162 161 26 -3 58 -12 72 -21z m2282 15 c27 0 14 -26 -18 -35 -37 -12 -51 -43
-34 -76 12 -25 45 -30 93 -14 48 16 42 -65 -7 -90 -41 -21 -65 -19 -132 12
-41 20 -60 36 -67 55 -13 36 2 88 33 117 25 24 80 42 104 35 8 -2 20 -4 28 -4z
m-3011 -14 c43 -18 58 -48 53 -101 -3 -24 1 -56 8 -75 8 -18 14 -36 14 -41 0
-14 -53 -10 -74 6 -16 12 -22 12 -40 0 -28 -18 -53 -20 -96 -11 -46 11 -60 23
-60 52 0 29 44 59 101 68 27 4 39 11 39 23 0 14 -9 15 -61 10 l-60 -7 3 28 c6
52 100 78 173 48z m452 -73 c0 -49 3 -101 5 -118 3 -26 -1 -30 -23 -33 -15 -2
-32 5 -44 18 -10 11 -24 20 -30 20 -42 0 -26 164 18 192 7 4 26 8 42 8 l30 0
2 -87z m616 75 c36 -19 46 -40 47 -94 0 -57 -22 -122 -46 -131 -9 -3 -27 5
-43 21 l-28 27 -12 -23 c-10 -20 -11 -15 -7 33 4 59 -4 79 -35 79 -24 0 -30
-23 -19 -82 12 -62 3 -77 -37 -62 -19 6 -36 28 -61 77 -36 71 -37 100 -6 131
21 21 70 21 82 -1 9 -15 13 -14 42 10 34 29 85 36 123 15z m1145 -40 c-3 -28
0 -78 7 -109 16 -81 -6 -101 -66 -58 -16 11 -29 17 -29 12 0 -4 -5 -1 -10 7
-18 28 -12 132 10 168 16 27 26 32 56 32 l37 0 -5 -52z m196 46 c28 -11 17
-23 -21 -26 -21 -2 -38 -7 -38 -13 0 -5 23 -21 50 -33 66 -31 85 -50 85 -82 0
-52 -18 -62 -115 -66 -72 -4 -92 -1 -107 12 -10 10 -18 23 -18 29 0 17 27 38
34 27 9 -15 42 -21 57 -11 11 7 4 18 -30 47 -38 33 -43 43 -37 65 10 43 88 71
140 51z m394 -76 c0 -46 2 -99 4 -118 3 -31 0 -35 -23 -38 -15 -2 -32 5 -44
18 -10 11 -24 20 -31 20 -17 0 -27 53 -19 105 8 60 38 95 79 95 l32 0 2 -82z
m497 68 c44 -19 59 -47 50 -101 -4 -30 -1 -55 10 -81 11 -27 12 -39 4 -45 -14
-8 -49 0 -70 17 -12 11 -18 11 -35 0 -34 -23 -65 -25 -110 -6 -36 16 -44 24
-44 45 0 30 44 60 102 70 59 10 41 30 -27 30 -62 0 -78 12 -53 42 33 40 113
54 173 29z m-3879 -485 c53 -24 109 -91 123 -146 16 -64 15 -2728 -1 -2792
-15 -60 -87 -137 -143 -152 -26 -7 -193 -11 -483 -11 -475 0 -485 1 -539 52
-32 30 -29 38 15 38 54 0 174 33 254 68 89 41 148 97 184 175 41 89 40 176 -4
318 -27 86 -31 111 -22 133 14 38 6 46 -47 46 -29 0 -55 7 -73 20 -42 30 -81
118 -87 193 -9 108 22 164 95 176 l37 7 -3 50 c-2 29 6 86 19 134 24 94 22
153 -9 223 -43 98 -139 164 -271 188 l-70 12 -5 51 c-5 49 -24 566 -24 654 l1
42 42 0 c26 0 48 -6 55 -15 17 -21 56 -19 80 5 27 27 25 54 -4 77 -23 19 -23
19 -5 42 24 29 24 36 -1 61 -24 24 -78 27 -86 5 -4 -10 -20 -15 -51 -15 l-45
0 5 43 c3 23 8 55 12 70 6 22 3 32 -19 50 -14 12 -26 28 -26 35 0 7 -4 12 -10
12 -18 0 -11 26 21 73 21 31 46 54 81 71 l52 26 455 0 c421 0 459 -2 497 -19z
m1906 -16 c28 -20 52 -49 71 -84 l27 -55 0 -1387 0 -1387 -28 -53 c-20 -39
-41 -62 -77 -84 l-48 -30 -451 -3 c-316 -2 -463 1 -492 9 -55 15 -107 59 -133
112 -21 43 -21 44 -21 1438 0 1331 1 1396 19 1434 20 44 68 90 116 111 24 11
127 13 502 11 l471 -2 44 -30z m1836 19 c43 -18 88 -58 108 -96 22 -42 18 -48
-31 -48 l-45 0 0 -39 c0 -33 -4 -40 -22 -43 -34 -5 -37 -38 -4 -38 22 0 26 -4
26 -30 0 -19 -5 -30 -14 -30 -7 0 -19 -7 -26 -15 -11 -13 -8 -17 19 -28 40
-15 43 -53 5 -67 -29 -12 -27 -34 4 -38 43 -6 47 -50 43 -422 -2 -190 -6 -412
-10 -494 l-6 -149 -70 -14 c-134 -27 -226 -104 -241 -200 -4 -27 -2 -97 4
-158 17 -162 5 -229 -79 -417 -95 -214 -110 -302 -68 -413 56 -150 162 -223
383 -266 55 -11 102 -21 103 -23 9 -8 -61 -56 -95 -66 -23 -6 -206 -10 -482
-10 -491 0 -488 0 -553 66 -67 67 -62 -58 -62 1495 l0 1406 30 48 c22 36 45
57 84 77 l53 28 454 0 c388 0 460 -2 492 -16z m-4707 -427 c14 -10 15 -16 4
-30 -16 -22 -95 -24 -95 -3 0 8 -3 21 -6 30 -5 13 2 16 37 16 24 0 51 -6 60
-13z m33 -1642 c22 -23 36 -83 40 -174 4 -81 27 -141 53 -141 15 0 27 19 28
45 0 30 29 24 33 -7 3 -22 -3 -30 -29 -43 -30 -16 -33 -16 -58 2 -39 29 -51
63 -57 155 -7 115 -12 144 -29 158 -11 9 -17 7 -27 -9 -15 -24 -38 -28 -38 -6
0 31 58 45 84 20z m2126 -1213 c21 -17 22 -21 10 -57 -7 -21 -37 -74 -68 -119
-30 -45 -55 -90 -56 -101 -2 -32 -62 -65 -117 -65 -27 0 -49 2 -49 5 0 19 48
91 104 159 63 74 76 96 58 96 -18 0 -177 -137 -307 -264 -147 -144 -153 -155
-78 -156 17 0 102 -13 188 -30 86 -16 167 -30 180 -30 40 0 37 -17 -7 -49 -53
-39 -65 -39 -292 -1 -208 35 -290 37 -377 11 -132 -39 -147 -32 -76 36 51 50
77 61 167 69 l69 7 143 145 c172 174 311 292 392 332 69 35 86 37 116 12z
m2981 8 c39 -21 23 -71 -62 -197 -27 -40 -46 -78 -43 -87 10 -25 -63 -66 -118
-66 -27 0 -48 5 -48 10 0 22 31 69 99 150 70 85 82 116 33 84 -54 -34 -190
-155 -306 -273 l-119 -119 34 -5 c19 -3 90 -15 159 -27 69 -12 154 -26 190
-32 98 -16 97 -15 49 -53 -55 -44 -69 -44 -296 -5 -195 33 -282 37 -363 15
-79 -22 -140 -33 -140 -26 0 16 84 94 114 106 18 8 64 17 102 21 l68 7 160
162 c180 181 292 274 381 317 66 31 77 33 106 18z m-6694 -45 c13 -22 23 -47
23 -55 0 -14 -67 -132 -107 -190 -10 -13 25 12 77 56 52 44 116 95 142 112 51
35 185 102 204 102 20 0 64 -41 64 -60 0 -21 -75 -134 -152 -230 -29 -36 -46
-60 -38 -54 237 178 437 310 498 328 18 6 30 0 57 -27 20 -20 33 -41 29 -49
-3 -7 -46 -44 -96 -83 -221 -171 -352 -395 -231 -395 8 0 57 19 110 42 70 31
98 48 109 69 40 79 302 209 419 209 57 0 88 -46 48 -69 -15 -8 -16 -12 -5 -22
21 -22 13 -44 -33 -89 -113 -111 17 -138 135 -29 l44 41 -22 18 c-12 10 -22
23 -22 29 0 17 60 81 91 97 49 25 86 16 57 -15 -11 -10 -6 -12 22 -7 19 3 63
8 97 11 58 6 63 4 78 -19 22 -33 13 -55 -32 -86 -38 -26 -93 -94 -93 -116 0
-45 141 1 161 53 14 37 95 120 141 144 21 10 55 19 78 19 35 0 40 -3 40 -22 0
-27 -43 -75 -105 -118 -25 -17 -50 -40 -56 -52 -18 -33 22 -62 73 -54 55 9
128 47 128 67 0 59 255 199 394 215 46 6 60 4 76 -11 26 -23 25 -42 0 -50 -19
-6 -19 -8 -5 -28 8 -12 15 -25 15 -30 0 -4 -21 -30 -46 -57 -32 -34 -45 -56
-42 -72 6 -43 53 -35 181 30 18 9 4 -35 -16 -49 -73 -53 -104 -69 -152 -79
-58 -12 -86 -8 -109 16 -13 12 -13 20 -1 55 l14 40 -57 -44 c-106 -82 -140
-87 -201 -32 -21 19 -42 35 -45 35 -4 0 -24 -13 -44 -30 -73 -58 -172 -56
-230 4 -35 38 -36 38 -90 -2 -33 -25 -103 -39 -144 -29 -37 10 -67 43 -61 67
3 12 27 45 54 74 52 57 51 76 -4 76 -23 0 -46 -18 -116 -87 -105 -106 -171
-145 -247 -147 -71 -1 -92 18 -77 69 10 32 3 48 -12 26 -3 -5 -33 -28 -66 -50
-83 -55 -119 -55 -169 -1 -20 22 -40 40 -43 40 -4 0 -30 -15 -59 -34 -118 -75
-228 -97 -298 -61 -110 57 -69 160 132 331 50 43 86 80 80 82 -28 9 -274 -170
-457 -333 l-96 -85 -27 17 c-43 27 -62 45 -62 61 0 8 58 73 128 146 183 187
245 276 195 276 -42 0 -299 -225 -477 -418 -32 -34 -61 -62 -64 -62 -20 1
-102 63 -102 77 0 4 45 53 101 108 161 160 260 292 246 329 -11 27 -54 18
-200 -43 -175 -72 -180 -74 -218 -66 -28 6 -31 10 -25 38 8 40 29 63 91 98 58
33 94 39 55 9 -32 -25 -27 -25 40 1 111 44 205 68 255 66 47 -2 51 -4 72 -42z
m2080 -10 c9 -24 -25 -55 -102 -91 -62 -30 -125 -44 -125 -28 0 13 77 99 105
116 38 23 113 24 122 3z m2471 -121 c28 -19 28 -27 0 -58 -22 -24 -25 -25 -70
-14 -53 13 -59 25 -25 55 38 35 63 40 95 17z m3396 0 c21 -20 20 -36 -3 -61
-18 -18 -24 -19 -71 -10 -60 12 -63 29 -11 64 40 27 64 29 85 7z m-3083 -149
c27 -104 3 -153 -111 -220 l-45 -27 45 7 c74 10 157 53 169 86 24 70 303 209
419 209 56 0 97 -51 53 -65 -16 -5 -18 -10 -8 -35 10 -27 8 -32 -36 -79 -26
-28 -47 -54 -47 -60 0 -50 49 -54 134 -11 94 48 91 14 -5 -52 -71 -49 -149
-67 -196 -44 -35 16 -40 34 -22 68 18 33 5 30 -57 -16 -94 -70 -141 -73 -199
-9 l-33 36 -58 -36 c-33 -20 -77 -40 -99 -46 -52 -13 -145 1 -188 28 -71 45
-70 45 -118 12 -45 -31 -111 -49 -162 -43 -15 2 -42 19 -61 38 -18 19 -38 34
-44 34 -6 0 -32 -13 -59 -30 -57 -35 -129 -48 -173 -30 -36 15 -38 35 -8 87
22 37 22 37 -45 -20 -63 -53 -71 -57 -118 -57 -44 0 -55 4 -80 31 -61 66 -51
99 60 197 68 60 73 62 125 62 30 0 58 -5 61 -10 9 -14 -47 -66 -124 -115 -60
-39 -85 -75 -64 -96 12 -12 180 88 246 147 117 105 179 129 185 72 3 -22 -11
-42 -72 -108 -52 -55 -76 -89 -76 -105 0 -31 21 -32 84 -5 32 13 50 28 57 47
16 43 74 108 126 142 39 26 56 31 93 29 34 -2 46 -7 48 -21 4 -18 -46 -72
-127 -136 -49 -39 -52 -70 -8 -85 36 -13 125 16 169 56 17 15 80 65 140 110
59 46 108 87 108 92 0 24 35 47 68 44 34 -3 35 -5 53 -73z m2327 18 c3 -17
-19 -47 -78 -114 -48 -53 -80 -97 -78 -107 8 -44 100 -11 173 63 l44 43 -22
15 -22 15 34 36 c55 57 154 85 137 39 -5 -12 -1 -14 16 -9 13 3 53 9 90 12
l66 7 12 -42 c13 -51 0 -76 -36 -67 -16 4 -33 -2 -56 -22 -18 -16 -48 -37 -65
-47 -38 -22 -41 -31 -12 -40 11 -4 25 -17 31 -31 l11 -24 70 38 c51 27 73 45
83 69 18 42 102 125 148 147 47 22 109 18 114 -7 4 -18 -41 -66 -128 -137 -35
-29 -41 -40 -36 -57 11 -34 60 -39 129 -13 51 19 60 27 79 66 40 86 167 170
273 181 58 6 100 -9 91 -33 -3 -8 1 -17 9 -20 24 -10 19 -81 -10 -131 -23 -38
-24 -43 -8 -43 10 1 29 7 43 15 33 19 40 18 40 -3 0 -28 -55 -55 -102 -49 -33
4 -43 1 -68 -23 -35 -34 -100 -54 -149 -46 -21 3 -49 19 -71 41 -40 39 -52 42
-71 19 -57 -68 -214 -74 -249 -9 -7 14 -21 27 -31 30 -21 7 -159 -78 -159 -98
0 -28 -64 -109 -119 -151 -101 -78 -144 -91 -201 -61 -35 18 -35 17 -15 55 19
38 87 89 180 137 59 30 75 43 75 60 0 28 -36 53 -77 53 -18 0 -33 4 -33 10 0
12 55 47 148 94 40 20 72 38 72 41 0 2 -7 2 -16 -2 -8 -3 -26 0 -39 7 -33 18
-96 6 -115 -21 -100 -143 -262 -229 -348 -185 -18 9 -32 20 -32 24 0 4 11 26
25 50 l24 43 -67 -56 c-65 -54 -68 -56 -122 -53 -51 3 -56 6 -88 47 -20 27
-31 50 -27 60 13 34 50 78 109 129 58 50 64 52 118 52 41 0 58 -4 58 -13 0
-18 -53 -66 -126 -115 -62 -41 -82 -73 -60 -91 15 -13 165 76 240 141 124 108
187 134 194 81z"/>
<path d="M3597 5493 c-14 -13 -7 -53 9 -53 27 0 54 20 54 40 0 15 -7 20 -28
20 -16 0 -32 -3 -35 -7z"/>
<path d="M3580 5391 c0 -25 14 -41 36 -41 32 0 33 35 2 44 -31 8 -38 7 -38 -3z"/>
<path d="M5800 5436 c-18 -23 -8 -61 17 -64 17 -3 26 3 33 22 5 14 7 33 4 41
-8 19 -38 19 -54 1z"/>
<path d="M9290 5436 c-18 -23 -8 -61 17 -64 17 -3 26 3 33 22 5 14 7 33 4 41
-8 19 -38 19 -54 1z"/>
<path d="M6147 5479 c-17 -10 -22 -44 -11 -73 9 -24 43 -19 53 6 16 43 -10 84
-42 67z"/>
<path d="M8907 5479 c-17 -10 -22 -44 -11 -73 9 -24 43 -19 53 6 16 43 -10 84
-42 67z"/>
<path d="M4163 5443 c-26 -10 -13 -33 17 -33 32 0 42 23 14 34 -9 3 -16 6 -17
5 -1 0 -8 -3 -14 -6z"/>
<path d="M5073 5443 c-22 -8 -14 -33 10 -33 30 0 40 10 26 27 -12 14 -16 15
-36 6z"/>
<path d="M6522 5378 c-15 -15 3 -38 29 -38 14 0 19 7 19 25 0 27 -26 35 -48
13z"/>
<path d="M9633 5443 c-23 -9 -14 -33 11 -33 29 0 44 19 25 31 -15 10 -18 10
-36 2z"/>
<path d="M7177 4984 c-14 -14 -6 -24 19 -24 16 0 24 5 22 13 -5 14 -31 21 -41
11z"/>
<path d="M7158 4933 c-21 -5 -24 -39 -4 -46 21 -8 56 4 56 19 0 17 -29 32 -52
27z"/>
<path d="M4660 4936 c-12 -34 4 -79 26 -74 27 5 39 33 28 65 -13 37 -41 42
-54 9z"/>
<path d="M6369 4936 c-9 -20 -9 -32 0 -52 22 -49 74 -10 55 43 -13 37 -41 42
-55 9z"/>
<path d="M5653 4859 c-29 -11 -29 -25 -2 -40 28 -14 46 2 33 30 -7 15 -14 17
-31 10z"/>
<path d="M8948 4859 c-24 -14 -23 -36 3 -44 27 -9 40 4 33 33 -7 25 -11 26
-36 11z"/>
<path d="M6380 3977 c-99 -41 -162 -93 -254 -210 -44 -55 -77 -137 -68 -169 3
-13 14 -36 24 -53 22 -37 23 -73 2 -96 -13 -14 -14 -24 -7 -46 7 -19 7 -33 0
-45 -16 -24 10 -93 39 -107 14 -6 24 -19 24 -31 0 -34 19 -60 43 -60 16 0 30
-14 51 -52 17 -29 56 -79 87 -112 l58 -59 75 7 c71 6 76 5 90 -16 8 -13 17
-44 21 -69 8 -53 -2 -77 -90 -219 -114 -186 -189 -373 -240 -602 -20 -90 -50
-202 -68 -250 l-31 -87 -70 -35 c-39 -19 -91 -40 -114 -47 -41 -12 -43 -15
-38 -41 10 -51 55 -106 109 -133 l51 -25 450 0 c418 0 454 2 491 19 22 10 52
31 67 47 60 64 58 40 58 785 l0 681 -115 118 c-63 65 -115 125 -115 134 0 10
17 24 44 35 45 20 56 35 56 77 0 13 12 43 27 65 l27 41 -16 57 c-28 98 -59
176 -74 187 -8 6 -14 20 -14 31 0 11 -11 32 -25 47 -14 15 -25 33 -25 40 0 7
-11 18 -24 24 -14 6 -26 22 -29 40 -4 19 -18 37 -39 50 -18 12 -40 26 -48 31
-8 5 -42 22 -75 37 -50 23 -77 28 -160 31 -87 3 -107 1 -155 -20z"/>
<path d="M3564 847 c-84 -32 -167 -105 -162 -142 8 -58 108 -10 251 121 l54
50 -34 0 c-19 0 -68 -13 -109 -29z"/>
<path d="M4843 860 c-79 -28 -128 -57 -161 -95 -35 -39 -41 -72 -15 -82 27
-11 134 52 213 125 72 66 72 67 42 68 -17 1 -53 -7 -79 -16z"/>
<path d="M7282 814 c-77 -59 -82 -64 -58 -70 13 -3 32 -14 42 -25 24 -27 51
-24 84 9 34 35 51 116 29 137 -12 10 -28 2 -97 -51z"/>
<path d="M7839 864 c-105 -36 -218 -125 -205 -161 3 -8 6 -17 6 -19 0 -2 10
-4 23 -4 33 0 133 63 210 133 l69 62 -35 1 c-18 0 -49 -5 -68 -12z"/>
<path d="M10765 860 c-43 -9 -65 -23 -109 -68 -30 -32 -39 -49 -40 -79 -1 -37
0 -38 36 -41 20 -2 51 4 67 13 27 14 31 21 31 58 0 29 8 54 26 80 14 21 24 40
22 41 -1 2 -16 0 -33 -4z"/>
<path d="M9889 512 c-71 -47 -117 -88 -108 -96 9 -9 79 23 116 52 32 26 83 92
70 92 -3 0 -38 -22 -78 -48z"/>
</g>
</svg>
