<svg id="Capa_1" data-name="Capa 1" xmlns="http://www.w3.org/2000/svg" xmlns:xlink="http://www.w3.org/1999/xlink" viewBox="0 0 1080 1080"><defs><style>.cls-1,.cls-6{fill:none;}.cls-2{clip-path:url(#clip-path);}.cls-3{fill:#fff;}.cls-4{fill:#a30000;}.cls-5{clip-path:url(#clip-path-2);}.cls-6{stroke:#fff;stroke-miterlimit:10;stroke-width:2.57px;}.cls-7{clip-path:url(#clip-path-3);}</style><clipPath id="clip-path"><rect class="cls-1" x="717.36" y="225.41" width="177.77" height="443.08" rx="30.93"/></clipPath><clipPath id="clip-path-2"><rect class="cls-1" x="450.72" y="225.41" width="177.77" height="443.08" rx="30.93"/></clipPath><clipPath id="clip-path-3"><rect class="cls-1" x="184.07" y="225.41" width="177.77" height="443.08" rx="30.93"/></clipPath></defs><g class="cls-2"><rect class="cls-3" x="717.36" y="225.41" width="177.77" height="443.08" rx="30.93"/><path class="cls-4" d="M975.05,592.75a45.59,45.59,0,0,1,0,14.79,52.56,52.56,0,0,1-3.37,11.27c-6.84,17.79-21.23,26.89-38.48,32-9,2.64-18.35,3.83-27.55,5.68H885.17c-9.2-1.84-18.57-3.1-27.56-5.67-14.47-4.12-27.33-11.28-35-24.9a59.21,59.21,0,0,1-6.88-18.36,42.23,42.23,0,0,1,0-14.79c2.88-15.76,10.82-30.18,17.11-44.9,7.29-17.06,9.88-34,6.11-52.57-5-24.41,6.26-40.41,30.48-46.12,4.56-1.08,9.24-1.71,14.12-2.59.12-1.16.33-2.25.35-3.36Q885,386.65,886,330.08c.23-12.19,1.31-24.47-4.24-35.64a23.91,23.91,0,0,1-5.63-.19c-.43-.11-.73-3.7-.3-3.9,1.85-.82,4-1,6.54-1.46-.22-2.83-.49-6.34-.72-9.19a35,35,0,0,1-6.81-.66c-.39-.11-.42-3.88,0-4,2-.61,4.19-.56,6.65-.77l-.73-9.52c-2.57,0-4.62.24-6.51-.2-.39-.09-.63-3.8-.2-4,1.9-.76,4.07-.82,6.57-1.2V248H910.2v11.24c2.78.5,4.85.56,6.54,1.39.49.24.16,3.85-.27,3.95-1.89.46-4,.2-6.41.2-.24,3-.52,6.56-.75,9.38,2.52.28,4.71.25,6.64.93.45.16.33,3.93,0,4a36.15,36.15,0,0,1-6.8.55c-.24,3-.51,6.47-.76,9.53,2.5.23,4.62.06,6.36.8.51.22.31,4.2-.18,4.35-1.85.54-4,.21-6.31.21-1.16,5.66-3.56,11.87-3.5,18.05.43,43.57,1.37,87.13,2.17,130.69a34.66,34.66,0,0,0,.42,3.47c1.88.25,3.54.47,5.2.71s3.38.45,5.05.77c16.66,3.17,30.63,9.93,34,28.53a56.88,56.88,0,0,1-.09,20.24c-2.9,15.17-1.9,29.64,3.83,44C962.12,558.16,971.71,574.59,975.05,592.75Z"/></g><g class="cls-5"><rect class="cls-3" x="450.72" y="225.41" width="177.77" height="443.08" rx="30.93"/><path class="cls-4" d="M487.8,327.83S509.53,300,536.17,300.6s24.62,5.07,25.06,5.07,2.61-1.74,6.08,2.17,4.64-.43,8.26,3.19,1.3,3.62,5.79,4.78,6.37,7.53,6.37,10.57,5.94.58,6.66,4.78,1.6,5.5,4.78,7.1.87,9.7,4.06,9.84,4.49,10.29,4.49,10.29,10.06,19.62,6.59,26.79-5.87,6.95-5.43,10.86-.44,11.08-10.21,12.82-.44,12.16-.44,12.16l28,28.24s34.11,41.49,40.63,67.34S682.3,583.73,679.11,635l-2.89,36.78H421.33s2.32-22.59,26.94-29.25,36.78-15.64,36.78-15.64l8.69-24,9.85-44.9,14.48-37.07,11.59-21.73S547,474,546.46,467.58s-2.61-19.11-8.69-18.54S522.42,455.42,512,445s-17.67-25.78-17.67-25.78-6.95,4.35-8.69-6.52-5.79-2.6-7.53-9.12-4.63-8.25-1.3-12.31-4.78-8.4.72-11.87.87-13.26-.65-14.63-5.5-10.36-2.61-13.25-.4-7.28,6.66-14.78S487.8,327.83,487.8,327.83Z"/><rect class="cls-6" x="450.72" y="225.41" width="177.77" height="443.08" rx="30.93"/></g><g class="cls-7"><rect class="cls-3" x="184.07" y="225.41" width="177.77" height="443.08" rx="30.93"/><path class="cls-4" d="M179.69,656.15c-1.55,0-3.3-.07-5,0a2.48,2.48,0,0,0-1.41.91c-.87.95-1.75.94-2.21-.17s-1.09-1.07-2-1.22c-6.28-1.05-12.59-2-18.81-3.32-6-1.27-11.39-4-16.68-7-3-1.69-6-3.39-9-5-5-2.71-8.47-6.93-11.63-11.45a45,45,0,0,1-7.8-18.08,55.5,55.5,0,0,1,.35-20.15,118.75,118.75,0,0,1,6.76-22,15.9,15.9,0,0,0-.51-13.79c-1-1.85,1.22-2.79,1.64-4.27.06-.18,1.31-.13,2,0,1.4.3,2.75.87,4.16,1.09,4.87.77,8.37-1.92,11.64-4.92,4.45-4.08,6.93-9.34,8.82-15,2.33-7,3.58-14.13,2-21.4a41.43,41.43,0,0,0-3.73-10.31c-2.28-4.36-7.19-6.16-12.06-4.89-1.79.47-2.53.11-3-1.69-.44-1.6-.76-2.87.18-4.51,1.73-3,1.7-6.32.79-9.64-1.62-5.9-3.54-11.74-4.72-17.72-2-10.17-.17-19.77,4.89-28.94,4.92-8.93,12.33-14.47,21.61-18a96.56,96.56,0,0,1,23.77-5.83c.5-.05,1-.17,1.61-.29.16-4.7.27-9.38.5-14.05q1.4-28.32,2.83-56.64c.28-5.57.74-11.13.78-16.7a86.89,86.89,0,0,0-1-9.72h-8.63a8.63,8.63,0,0,0-2.21,0,10.07,10.07,0,0,0-2.13,1.28c-3.15,0-6.71.08-10.26,0-1.83-.06-3-1.8-3-3.93s1.15-3.71,3.09-3.77c3.49-.11,7,0,10.61,0-.11,2,1.43,1.36,2.8,1.33,3.27-.06,6.55,0,10,0l.9-14H162.12c.11,2.23-.71,4.13-3,4.66-3.34.75-6.51.17-8.92-2.5-1.92-2.12-2.85-4.6-1.71-7.43a8,8,0,0,1,7-5.42c2.28-.22,4.66-.41,6,2a14.22,14.22,0,0,1,.84,3.4h13.76c.31-6.36.63-12.69.95-19.07l-2-.48c-.05-.06-.12-.1-.13-.15-.5-2.91-1-5.83-1.51-8.85l2.68-.29c-.16-2.37.91-3.5,3.37-2.87.45-2,.86-3.88,1.32-6,1.17.94,2.1,2.47,3.16.17,1,1.74,2.08,1.32,3.34-.08.3,1.54.65,2.77.76,4,.14,1.46.69,2.17,2.23,1.83a4.7,4.7,0,0,1,1.21.06l.59,2.84,2.49.3c-.44,3-.88,6-1.33,9l-1.76.36v12.11h13.91c.47-3.82,1.3-4.55,5.31-4.31a19.94,19.94,0,0,1,4.42.75,6.55,6.55,0,0,1,4.3,6.22c-.13,2.16-2,5.48-4.51,5.84a42.87,42.87,0,0,1-5,.63c-3.23.09-4-.68-4.47-3.77H192c.22,3.41.44,6.93.66,10.38h14.16a12,12,0,0,1,.91-3.49c1.48-2.49,4-2.21,6.39-1.85,3.17.48,5.19,2.5,6.51,5.34,1.56,3.34-.95,7.65-3.43,8.83a14.48,14.48,0,0,1-5.38,1.32c-3.1.14-4.55-1.47-4.86-4.82H193.33c0,.8,0,1.7,0,2.61.09,3.57.77,7.23.17,10.68-2,11.59.56,23,.73,34.52.2,13.95,1.17,27.89,1.79,41.83.27,5.93.49,11.87.73,17.75,4.39.82,8.71,1.48,13,2.44,7.71,1.74,15.18,4.18,21.87,8.52a36.94,36.94,0,0,1,12.77,14.35c3.84,7.36,6,15.08,5,23.28-.66,5.61-2.28,11.12-3.78,16.59-1,3.56-2.39,7-2,10.78a15.54,15.54,0,0,0,1.66,5.45c1.14,2.18-.46,3.56-1.11,5.18-.13.32-1.65.26-2.47.09-5.61-1.18-10.46,1.47-12.88,6.78a34.6,34.6,0,0,0-2.92,21c1.36,7.34,3.43,14.5,8,20.59,2.58,3.42,5.73,6.42,9.86,7.76,2,.65,4.4.19,6.62.18.41,0,.81-.34,1.24-.4,1-.17,2.66-.73,3-.3,1.08,1.34,2.73,2.75,1.48,4.93-3.35,5.89-.8,11.36,1.19,16.9,1.32,3.7,2.6,7.42,3.7,11.2a63.59,63.59,0,0,1,2.77,19.42,47.29,47.29,0,0,1-9,26.32,43,43,0,0,1-18.09,14.66c-5.74,2.61-11.44,5.4-17.42,7.3s-12.15,2.75-18.25,4c-2.84.31-5.76.55-6.85.63-1.36.09-2.74,0-4.26,0Zm38.08-114c-.16-.63-.38-1.41-.54-2.2-.91-4.64-1.52-9.38-2.82-13.91-.94-3.29-3.14-6.09-6.81-6.84-3.37-.68-6.07.9-8.31,3.3-1.06,1.15-1.3,2.71-.22,3.73a4.84,4.84,0,0,0,3.48,1.07c1.4-.14,1.2-1.62,1.51-2.78s1.57-1.85,2.57-2.52c.23-.16,1.29.54,1.67,1.06a14,14,0,0,1,2.52,7.74c.11,2.12.21,4.24.34,6.37s.82,4.39.26,6.31c-.63,2.2.9,3.81.6,5.81a13.65,13.65,0,0,0,.35,4.1c.86,5.07,2.47,9.77,6.47,13.36,2.73,2.45,5.74,3.49,9.1,1.75,3.17-1.65,6.33-3.51,6.27-7.85,0-1.59-.33-3-2-3.65s-3.29-.69-4.54.61-1.11,3.09-.28,4.72c.19.37.45.7.77,1.19a37.7,37.7,0,0,1-3.67,2.66,1.82,1.82,0,0,1-1.74-.39,36.45,36.45,0,0,1-3.65-6c-2-4.58-2-9.5-1.86-14.39A24.31,24.31,0,0,1,217.77,542.12Zm-77.9,21.34c.37-.51.79-.82.84-1.19.2-1.3.71-2.8.26-3.86-.37-.86-1.9-1.58-3-1.71-2.7-.32-4.2,1.3-4.15,4,.07,3.55,3.66,7.47,8,8.22a8.77,8.77,0,0,0,5.19-.69,15.27,15.27,0,0,0,7-8.45,43.71,43.71,0,0,0,2.39-16.77,2.72,2.72,0,0,1,0-.57c.22-3.62.41-7.24.7-10.85.24-3,.62-6,2.53-8.49.47-.61,1.92-1.32,2.08-1.17.89.92,2.89.81,2.6,2.92-.26,1.91.67,2.63,2.55,2.5a2.5,2.5,0,0,0,2.42-2,3.52,3.52,0,0,0-1.36-3.84c-5.67-4.59-10.87-2.74-13.7,3.21-2.3,4.83-3.76,14.22-3.54,19.56a75.32,75.32,0,0,1-.13,8.63,20.83,20.83,0,0,1-4.9,12.49,2.22,2.22,0,0,1-2,.67A32,32,0,0,1,139.87,563.46Z"/></g><path class="cls-3" d="M233.35,725.42s-.25,1.17-1.93,1.17c-4.18,0-1.58-11,10.21-11,10.46,0,12.89,12.8,11.8,26.86h.84c6.94-14.06,15.23-26.95,22.34-26.95,4,0,5.19,3.52,5.19,8.87a109,109,0,0,1-1.92,15h.75c7.78-14.64,17.4-28.87,25.1-28.87,2.51,0,3.77,1.43,3.77,4.19-6.19,15.23-21.93,70.2-8.62,70.2,3,0,4.85-3.26,5.61-4.93.5-.84,2-.67,1.84,0s-3.27,7.69-8,7.69c-21.92,0-2.09-58.24,2.68-72.55.34-1.08-.59-1.42-1.92-.25-12.81,12.14-24.1,39.75-26.36,46.2-2.43,7.11-4.52,11.63-6.95,11.63-1.25,0-1.76-.51-1.76-1.76a.27.27,0,0,1,.09-.17c.67-2.42,10.46-36.23,10.46-47.61,0-2.93-.5-4.35-1.93-4.35-5.1,0-19,23.68-24.6,43.09-2.93,10.13-6.27,17.32-8.87,17.32-1.17,0-1.76-.58-1.76-1.84,0,0,.09-.25.26-.67,1.84-5.52,19.33-59.07,1-59.07C233.18,717.56,231.84,725.42,233.35,725.42Z"/><path class="cls-3" d="M341,781.91c2.34,0,3.35-3.52,3.35-3.52a1.26,1.26,0,0,1,1.17-.92c.83,0,.58.92.58.92s-2,6.36-5.35,6.36c-4.94,0-7.28-7.36-7.28-16.4a72.42,72.42,0,0,1,.92-11.13h-.84c-5.1,8.7-11.8,18.16-16,18.16-14.56,0-4.1-41.34,14.31-41.34,4.77,0,6.11,4.6,6.11,4.6s-.25,1.43-1.43,1.43c-1.42,0-1.67-.93-1.67-.93s-.92-2.84-3.6-2.84c-11.21,0-18.74,36.07-12.88,36.07,4.51,0,16.9-23.35,19.49-28.46,1.68-3.51,3.6-6,5.86-6,1,0,1.59.75,1.59,1.92A84.61,84.61,0,0,0,338.44,773C338.44,779.73,339.37,781.91,341,781.91Z"/><path class="cls-3" d="M382.71,733.79s-5.11,5.19-5.11,16.9c0,.42-.16.67-.41.67-3.77,0-4-8.7-1.68-14.31-8.11,7.12-19.75,31.05-19.75,35.9a1.12,1.12,0,0,1-1.17,1c-2,0-2.59-2.09-2.59-6.61,0-16,3.68-32.71,8.62-32.71,1.09,0,1.59.67,1.59,1.84a167.34,167.34,0,0,0-5.53,25h.59c5.36-12.22,15.31-29.46,23.51-29.46A1.81,1.81,0,0,1,382.71,733.79Z"/><path class="cls-3" d="M393.84,736.47c1.33,0,1.92.83,1.92,2.09,0,0-7.45,19.08-7.45,35.56a1.15,1.15,0,0,1-1.25,1.17c-1.51,0-2.26-2.26-2.26-7C384.8,752.62,388.31,736.47,393.84,736.47Zm6.27-15.73c0,2.17-4.1,7.86-4.1,7.86-2.93,0-1.92-9.79,2.43-9.79C399.61,718.81,400.11,719.48,400.11,720.74Z"/><path class="cls-3" d="M431.32,781.91c2.34,0,3.35-3.52,3.35-3.52a1.26,1.26,0,0,1,1.17-.92c.84,0,.59.92.59.92s-2,6.36-5.36,6.36c-4.94,0-7.28-7.36-7.28-16.4a73.69,73.69,0,0,1,.92-11.13h-.84c-5.1,8.7-11.79,18.16-16,18.16-14.56,0-4.1-41.34,14.31-41.34,4.77,0,6.11,4.6,6.11,4.6s-.25,1.43-1.42,1.43c-1.43,0-1.68-.93-1.68-.93s-.92-2.84-3.6-2.84c-11.21,0-18.74,36.07-12.88,36.07,4.52,0,16.9-23.35,19.5-28.46,1.67-3.51,3.59-6,5.85-6,1,0,1.59.75,1.59,1.92A84.71,84.71,0,0,0,428.73,773C428.73,779.73,429.65,781.91,431.32,781.91Z"/><path class="cls-3" d="M481.86,779.56c11.71,4.52,24.77,11,32,11,6.53,0,8-4.6,8-4.6,2.76,0,1.84,9.54-9,9.54-10.63,0-23.35-8-34.22-13.3a19.25,19.25,0,0,1-10.72,3c-12.38,0-12-10-3.18-10,3.6,0,8.29,1.25,13.39,3.09,14.23-16.06,9.12-67.61,28.2-67.61,5.36,0,4.86,4.69,4.86,4.69a4.37,4.37,0,0,0-3-.84C494.58,714.46,499,762.83,481.86,779.56Zm-6.44,1c-4.44-2-8.29-3.35-11.55-3.35-4.52,0-5.27,5.77,4,5.77A12.92,12.92,0,0,0,475.42,780.57Zm34.81-49c0-11.38,2.76-19,7-19a2,2,0,0,1,2,2.17s-6.11,5.69-6.11,17.58C513.15,733.12,510.23,732.87,510.23,731.61Z"/><path class="cls-3" d="M544.87,778.06a.91.91,0,0,1,1-.76c1,0,.75.76.75.76s-2.26,6.52-5.6,6.52c-7,0-8.2-14.06-6.2-27.19h-.75C529,766.26,522.77,775,518.51,775c-14.23,0-1.59-40.25,5.85-40.25,1.18,0,1.51.76,1.51,1.84,0,0-8.53,21.51-8.53,31.22,0,2.42.5,4.26,2,4.26,4.1,0,15.82-21.5,19.5-29.62,2.09-4.77,4.27-7.7,6.86-7.7,1.26,0,1.68.76,1.68,1.84,0,0-8.54,16.91-8.54,36.82,0,6.78,1.09,8.2,2.51,8.2C543.69,781.65,544.87,778.06,544.87,778.06Z"/><path class="cls-3" d="M563,736.47c1.34,0,1.92.83,1.92,2.09,0,0-7.44,19.08-7.44,35.56a1.16,1.16,0,0,1-1.26,1.17c-1.5,0-2.26-2.26-2.26-7C554,752.62,557.5,736.47,563,736.47Zm6.28-15.73c0,2.17-4.1,7.86-4.1,7.86-2.93,0-1.93-9.79,2.42-9.79C568.79,718.81,569.3,719.48,569.3,720.74Z"/><path class="cls-3" d="M589.38,758.06c0-8.12-3.1-16.24-3.1-23a10.49,10.49,0,0,1,.17-2.34c-4.1,6.7-8.62,17.49-15.48,27.36-.59.76-2.6-.5-2.18-1.08,11.05-16.15,17.16-35.57,24.85-35.57,1.34,0,1.76.76,1.76,1.51,0,2.84-5.94,5.19-5.94,13.14,0,6.61,4.85,17.57,4.85,25.43,0,10-6.61,17.66-13.39,17.66-14.3,0-5-25.27,4.36-31.13.92-.58,1.34,1.59.67,2-7.79,4.44-14.23,26.36-6.2,26.36C584,778.39,589.38,770.52,589.38,758.06Z"/><path class="cls-3" d="M632.22,781.91c2.34,0,3.35-3.52,3.35-3.52a1.26,1.26,0,0,1,1.17-.92c.83,0,.58.92.58.92s-2,6.36-5.35,6.36c-4.94,0-7.28-7.36-7.28-16.4a72.42,72.42,0,0,1,.92-11.13h-.84c-5.1,8.7-11.8,18.16-16,18.16-14.56,0-4.1-41.34,14.31-41.34,4.77,0,6.11,4.6,6.11,4.6s-.26,1.43-1.43,1.43c-1.42,0-1.67-.93-1.67-.93s-.92-2.84-3.6-2.84c-11.21,0-18.74,36.07-12.89,36.07,4.52,0,16.91-23.35,19.5-28.46,1.67-3.51,3.6-6,5.86-6,1,0,1.59.75,1.59,1.92a84.61,84.61,0,0,0-7,33.22C629.62,779.73,630.54,781.91,632.22,781.91Z"/><path class="cls-3" d="M682.75,779.56c11.72,4.52,24.77,11,32,11,6.53,0,8-4.6,8-4.6,2.76,0,1.84,9.54-9,9.54-10.63,0-23.35-8-34.23-13.3a19.24,19.24,0,0,1-10.71,3c-12.38,0-12-10-3.18-10,3.6,0,8.28,1.25,13.39,3.09,14.22-16.06,9.12-67.61,28.2-67.61,5.35,0,4.85,4.69,4.85,4.69a4.33,4.33,0,0,0-3-.84C695.47,714.46,699.91,762.83,682.75,779.56Zm-6.44,1c-4.43-2-8.28-3.35-11.55-3.35-4.51,0-5.27,5.77,4,5.77A12.86,12.86,0,0,0,676.31,780.57Zm34.81-49c0-11.38,2.76-19,7-19a2,2,0,0,1,2,2.17s-6.11,5.69-6.11,17.58C714.05,733.12,711.12,732.87,711.12,731.61Z"/><path class="cls-3" d="M745.76,778.06a.91.91,0,0,1,1-.76c1,0,.76.76.76.76s-2.26,6.52-5.61,6.52c-7,0-8.2-14.06-6.19-27.19H735c-5.11,8.87-11.3,17.65-15.57,17.65-14.22,0-1.59-40.25,5.86-40.25,1.17,0,1.51.76,1.51,1.84,0,0-8.54,21.51-8.54,31.22,0,2.42.5,4.26,2,4.26,4.1,0,15.81-21.5,19.5-29.62,2.09-4.77,4.26-7.7,6.86-7.7,1.25,0,1.67.76,1.67,1.84,0,0-8.53,16.91-8.53,36.82,0,6.78,1.08,8.2,2.51,8.2C744.59,781.65,745.76,778.06,745.76,778.06Z"/><path class="cls-3" d="M765.84,775.21c-14.89,5.44-23.09,25.19-15.48,25.19,14.23,0,33.39-34.14,21.67-34.14-5.27,0-9,3.76-12.55,3.76-1.84,0-2.26-3.85-2.26-3.85,12.39,0,25.52-29.2,16-29.2s-16.4,16.4-16.4,17.74c0,.92-3.18,1.34-3.18-.92,0-2.09,8.87-19.16,19.84-19.16,5.27,0,8,3.85,8,9,0,8.2-5.44,15.57-11,20.5A9.72,9.72,0,0,1,772,764c18.41,0,1.34,39.49-20.25,39.49-13.89,0-3.68-23.51,13.31-30C765.92,773,766.93,774.79,765.84,775.21Z"/><path class="cls-3" d="M798.81,736.47c1.34,0,1.92.83,1.92,2.09,0,0-7.45,19.08-7.45,35.56a1.15,1.15,0,0,1-1.25,1.17c-1.51,0-2.26-2.26-2.26-7C789.77,752.62,793.28,736.47,798.81,736.47Zm6.27-15.73c0,2.17-4.1,7.86-4.1,7.86-2.93,0-1.92-9.79,2.43-9.79C804.58,718.81,805.08,719.48,805.08,720.74Z"/><path class="cls-3" d="M817,773.12c6.36,0,14.23-16.49,14.23-32.64v-1c-3.77-2.43-5.94-6.44-5.94-8.12a3.73,3.73,0,0,1,3.18-3c2.26,0,4.43,4.77,5.18,9.29a9.16,9.16,0,0,0,5,1.76,5.12,5.12,0,0,0,2.67-.67,3,3,0,0,1-3,3,12.35,12.35,0,0,1-4.43-.84c-.17,16-8,35.23-17.83,35.23-18.66,0-8.78-40.08,5.86-40.08a2.51,2.51,0,0,1,2.59,2C813.36,738.06,806.17,773.12,817,773.12Z"/><path class="cls-3" d="M226.06,829.07v24.79h-1.62V829.07Z"/><path class="cls-3" d="M238.67,853.86h-1.48V829.07h2.12L246.75,850V829.07h1.49v24.79h-1.81l-7.76-22.1Z"/><path class="cls-3" d="M269.77,835.06v.53h-1.55V835c0-2.62-1-4.6-3.69-4.6s-3.68,1.94-3.68,4.56c0,6,9,6.13,9,13,0,3.57-1.56,6.19-5.35,6.19s-5.35-2.62-5.35-6.19V846.6h1.56V848c0,2.66,1,4.57,3.76,4.57s3.75-1.91,3.75-4.57c0-6-9-6.05-9-13,0-3.72,1.63-6.13,5.28-6.16S269.77,831.48,269.77,835.06Z"/><path class="cls-3" d="M284.9,853.86v-23.3h-5v-1.49h11.72v1.49h-5.06v23.3Z"/><path class="cls-3" d="M303.53,829.07v24.79H301.9V829.07Z"/><path class="cls-3" d="M318.84,853.86v-23.3h-5v-1.49h11.72v1.49h-5.07v23.3Z"/><path class="cls-3" d="M337.4,847.88c0,2.65,1,4.71,3.72,4.71s3.72-2.06,3.72-4.71V829.07h1.52v18.74c0,3.54-1.49,6.26-5.28,6.26s-5.31-2.72-5.31-6.26V829.07h1.63Z"/><path class="cls-3" d="M361.63,853.86v-23.3h-5v-1.49h11.72v1.49h-5.06v23.3Z"/><path class="cls-3" d="M378.52,835.13c0-3.62,1.67-6.27,5.42-6.27s5.49,2.65,5.49,6.27v12.68c0,3.61-1.66,6.26-5.49,6.26s-5.42-2.65-5.42-6.26Zm1.63,12.78c0,2.69,1.07,4.68,3.79,4.68s3.86-2,3.86-4.68V835c0-2.69-1.09-4.67-3.86-4.67s-3.79,2-3.79,4.67Z"/><path class="cls-3" d="M419.65,829.07c3.82,0,5.49,2.51,5.49,6.16V847.7c0,3.65-1.67,6.16-5.49,6.16H414.2V829.07Zm0,23.3c2.77,0,3.9-1.87,3.9-4.6V835.16c0-2.73-1.17-4.6-3.9-4.6h-3.79v21.81Z"/><path class="cls-3" d="M444.52,840.54V842h-6.77v10.34h8.15v1.49h-9.78V829.07h9.78v1.49h-8.15v10Z"/><path class="cls-3" d="M478.66,841.15v1.48h-6.41v11.23h-1.63V829.07H480v1.49h-7.79v10.59Z"/><path class="cls-3" d="M490.71,835.13c0-3.62,1.66-6.27,5.42-6.27s5.49,2.65,5.49,6.27v12.68c0,3.61-1.67,6.26-5.49,6.26s-5.42-2.65-5.42-6.26Zm1.63,12.78c0,2.69,1.06,4.68,3.79,4.68s3.86-2,3.86-4.68V835c0-2.69-1.1-4.67-3.86-4.67s-3.79,2-3.79,4.67Z"/><path class="cls-3" d="M517.77,829.07c3.79,0,5.31,2.09,5.31,5.6v2.16c0,2.9-1.13,4.57-3.57,5.13,2.55.57,3.57,2.37,3.57,5.07v3.86a5.47,5.47,0,0,0,.61,3H522a5.74,5.74,0,0,1-.54-3V847c0-3.29-1.8-4.21-4.64-4.21h-2.58v11.08H512.6V829.07Zm-.92,12.22c2.9,0,4.6-.82,4.6-4.14v-2.34c0-2.66-1-4.25-3.71-4.25h-3.51v10.73Z"/><path class="cls-3" d="M542.89,853.83h-1.63L536,831.9v22h-1.45V829.07h2.34L542.11,851l5.17-21.92h2.33v24.79h-1.55v-22Z"/><path class="cls-3" d="M563.11,848.37l-1.24,5.49h-1.48L565.8,829h2.38l5.52,24.83h-1.63l-1.24-5.49Zm.25-1.42h7.23l-3.65-16Z"/><path class="cls-3" d="M595,835.13v2h-1.56V835c0-2.66-1-4.67-3.76-4.67s-3.75,2-3.75,4.67v12.89c0,2.66,1,4.64,3.75,4.64s3.76-2,3.76-4.64V845H595v2.84c0,3.57-1.56,6.26-5.35,6.26s-5.35-2.69-5.35-6.26V835.13c0-3.58,1.56-6.27,5.35-6.27S595,831.55,595,835.13Z"/><path class="cls-3" d="M607.6,829.07v24.79H606V829.07Z"/><path class="cls-3" d="M629.53,835.13v12.68c0,3.61-1.67,6.26-5.49,6.26s-5.42-2.65-5.42-6.26V835.13c0-3.62,1.67-6.27,5.42-6.27S629.53,831.51,629.53,835.13Zm-9.28-.11v12.89c0,2.69,1.06,4.68,3.79,4.68s3.86-2,3.86-4.68V835c0-2.69-1.1-4.67-3.86-4.67S620.25,832.33,620.25,835Zm6.66-11-3,3.37h-1.24l2.52-3.37Z"/><path class="cls-3" d="M642,853.86h-1.49V829.07h2.13L650.07,850V829.07h1.49v24.79h-1.81L642,831.76Z"/><path class="cls-3" d="M678.8,848.37l-1.24,5.49h-1.48L681.5,829h2.37l5.52,24.83h-1.63l-1.24-5.49Zm.25-1.42h7.23l-3.65-16Z"/><path class="cls-3" d="M705.34,829.07c3.78,0,5.31,2.09,5.31,5.6v2.16c0,2.9-1.14,4.57-3.58,5.13,2.55.57,3.58,2.37,3.58,5.07v3.86a5.56,5.56,0,0,0,.6,3h-1.7a5.75,5.75,0,0,1-.53-3V847c0-3.29-1.81-4.21-4.64-4.21h-2.59v11.08h-1.63V829.07Zm-.93,12.22c2.91,0,4.61-.82,4.61-4.14v-2.34c0-2.66-1-4.25-3.72-4.25h-3.51v10.73Z"/><path class="cls-3" d="M726.3,853.86v-23.3h-5v-1.49H733v1.49h-5.07v23.3Z"/><path class="cls-3" d="M745.29,824.25H747l-3,3.37h-1.24Zm-2,4.82h1.63v24.79h-1.63Z"/><path class="cls-3" d="M766.51,835.06v.53H765V835c0-2.62-1-4.6-3.68-4.6s-3.69,1.94-3.69,4.56c0,6,9,6.13,9,13,0,3.57-1.55,6.19-5.34,6.19s-5.35-2.62-5.35-6.19V846.6h1.56V848c0,2.66,1,4.57,3.75,4.57s3.76-1.91,3.76-4.57c0-6-9-6.05-9-13,0-3.72,1.63-6.13,5.28-6.16S766.51,831.48,766.51,835.06Z"/><path class="cls-3" d="M781.64,853.86v-23.3h-5v-1.49h11.72v1.49h-5.07v23.3Z"/><path class="cls-3" d="M800.27,829.07v24.79h-1.63V829.07Z"/><path class="cls-3" d="M822,835.13v2h-1.56V835c0-2.66-1-4.67-3.75-4.67s-3.76,2-3.76,4.67v12.89c0,2.66,1,4.64,3.76,4.64s3.75-2,3.75-4.64V845H822v2.84c0,3.57-1.56,6.26-5.35,6.26s-5.35-2.69-5.35-6.26V835.13c0-3.58,1.56-6.27,5.35-6.27S822,831.55,822,835.13Z"/><path class="cls-3" d="M835.3,848.37l-1.24,5.49h-1.49L838,829h2.38l5.52,24.83h-1.63L843,848.37Zm.25-1.42h7.22l-3.64-16Z"/></svg>